<?xml version="1.0" encoding="UTF-8"?>
<svg id="Layer_2" data-name="Layer 2" xmlns="http://www.w3.org/2000/svg" viewBox="0 0 1096.1 250">
  <defs>
    <style>
      .cls-1 {
        fill: #03bced;
      }

      .cls-2 {
        fill: #0c3f4c;
      }
    </style>
  </defs>
  <g id="Horizontal_Light">
    <g id="Continuum">
      <polygon class="cls-2" points="237.9 236.78 14.33 236.78 0 112.32 0 86.6 14.33 13.2 237.9 13.2 237.9 236.78"/>
      <path class="cls-1" d="M250,0v250H0V112.32h60.29c5.72-32.8,34.06-57.69,72.28-57.69,19.09,0,36.25,6.32,48.69,17.25l-18.44,19.78c-9.43-8-19.09-10.31-28.53-10.31-25.31,0-43.75,19.36-43.75,43.33s18.02,43.96,42.68,43.96c12.88,0,24.67-4.84,33.25-14.1l18.67,20.62c-13.3,12.63-31.32,20.2-52.56,20.2-37.92,0-66.12-24.5-72.14-57.35H25.69v86.31h198.63V25.68H25.69v60.92H0V0h250Z"/>
      <g>
        <path d="M286.2,125c0-32.01,25.19-57.94,60.68-57.94,15.79,0,29.98,5.22,40.27,14.27l-15.26,16.36c-7.81-6.61-15.79-8.53-23.6-8.53-20.93,0-36.19,16.01-36.19,35.84s14.9,36.37,35.31,36.37c10.64,0,20.4-4,27.5-11.66l15.44,17.05c-11,10.44-25.9,16.7-43.47,16.7-35.48,0-60.68-25.93-60.68-58.46Z"/>
        <path d="M388.57,138.05c0-25.23,20.93-45.24,47.37-45.24s47.55,20.01,47.55,45.24-20.93,45.24-47.55,45.24-47.37-20.01-47.37-45.24ZM459.18,138.05c0-13.57-9.93-23.66-23.24-23.66s-23.24,10.09-23.24,23.66,9.94,23.66,23.24,23.66,23.24-9.92,23.24-23.66Z"/>
        <path d="M491.82,94.55h23.24v11.66c7.1-9.57,17.21-13.4,28.03-13.4,23.42,0,31.58,14.79,31.58,38.63v50.11h-23.77v-47.15c0-12.7-3.37-19.49-15.43-19.49s-19.87,9.4-19.87,22.62v44.02h-23.77v-87Z"/>
        <path d="M590.47,153.53v-40.19h-12.95v-18.79h12.95v-16.7l23.77-5.22v21.92h24.48v18.79h-24.48v39.84c0,7.48,3.73,9.92,7.98,9.92,5.68,0,10.65-3.13,11.35-3.65l6.74,17.23c-5.32,3.48-13.13,6.61-22.53,6.61-17.74,0-27.32-10.09-27.32-29.75Z"/>
        <path d="M644.4,70.19c0-7.66,6.39-13.92,14.02-13.92s14.19,6.26,14.19,13.92-6.39,13.75-14.19,13.75-14.02-6.26-14.02-13.75ZM646.71,94.55h23.77v87h-23.77v-87Z"/>
        <path d="M680.95,94.55h23.24v11.66c7.1-9.57,17.21-13.4,28.03-13.4,23.42,0,31.58,14.79,31.58,38.63v50.11h-23.77v-47.15c0-12.7-3.37-19.49-15.43-19.49s-19.87,9.4-19.87,22.62v44.02h-23.77v-87Z"/>
        <path d="M772.32,146.57v-52.02h23.77v48.89c0,12.18,5.32,17.75,16.32,17.75,12.42,0,18.45-10.27,18.45-22.1v-44.54h23.77v87h-22.35v-12.18c-5.32,8.53-17.39,13.92-27.68,13.92-24.48,0-32.29-14.09-32.29-36.71Z"/>
        <path d="M864.4,146.57v-52.02h23.77v48.89c0,12.18,5.32,17.75,16.32,17.75,12.42,0,18.45-10.27,18.45-22.1v-44.54h23.77v87h-22.35v-12.18c-5.32,8.53-17.39,13.92-27.68,13.92-24.48,0-32.29-14.09-32.29-36.71Z"/>
        <path d="M957.72,94.55h23.24v11.66c5.15-7.83,15.61-13.4,26.26-13.4,14.02,0,22.71,5.74,27.32,15.49,6.39-10.44,18.63-15.49,28.74-15.49,25.02,0,32.82,16.88,32.82,39.15v49.59h-23.77v-46.63c0-11.48-2.84-20.01-15.43-20.01-11.71,0-18.1,9.22-18.1,20.71v45.93h-23.77v-46.63c0-11.48-2.66-20.01-15.43-20.01-12.06,0-18.1,10.09-18.1,21.58v45.07h-23.77v-87Z"/>
      </g>
    </g>
  </g>
</svg>