<?xml version="1.0" encoding="UTF-8"?>
<svg xmlns="http://www.w3.org/2000/svg" width="99" height="111" viewBox="0 0 99 111" fill="none">
  <path d="M45.2979 1.02147L3.81608 24.9549C1.44958 26.3168 0 28.8427 0 31.5666V79.4334C0 82.1573 1.46197 84.6831 3.81608 86.0451L45.2979 109.979C47.6644 111.34 50.5761 111.34 52.9426 109.979L94.4244 86.0451C96.7909 84.6831 98.2405 82.1573 98.2405 79.4334V31.5666C98.2405 28.8427 96.7785 26.3168 94.4244 24.9549L52.9426 1.02147C50.5761 -0.340491 47.6644 -0.340491 45.2979 1.02147Z" fill="#701100"></path>
  <path d="M42.9092 82.8559H22.302V57.4546C22.302 41.421 35.2605 28.4775 51.2991 28.4775H76.5964V49.0705H51.2991C46.609 49.0705 42.9092 52.7678 42.9092 57.4546V82.8559ZM76.5964 76.1292V68.0486C76.5964 64.3332 73.5831 61.3219 69.8651 61.3219H61.7789C58.0609 61.3219 55.0475 64.3332 55.0475 68.0486V76.1292C55.0475 79.8447 58.0609 82.8559 61.7789 82.8559H69.8651C73.5831 82.8559 76.5964 79.8447 76.5964 76.1292Z" fill="url(#paint0_linear_3226_37393)"></path>
  <defs>
    <linearGradient id="paint0_linear_3226_37393" x1="22.2959" y1="55.6698" x2="76.5964" y2="55.6698" gradientUnits="userSpaceOnUse">
      <stop stop-color="#FA581D"></stop>
      <stop offset="1" stop-color="#DA1D46"></stop>
    </linearGradient>
  </defs>
</svg>
