<?xml version="1.0" encoding="UTF-8"?>
<svg id="Layer_2" data-name="Layer 2" xmlns="http://www.w3.org/2000/svg" viewBox="0 0 957.38 250">
  <defs>
    <style>
      .cls-1 {
        fill: #e5179b;
      }

      .cls-2 {
        fill: #510034;
      }
    </style>
  </defs>
  <g id="Horizontal_Light">
    <g id="Sapphire">
      <polygon class="cls-2" points="237.25 236.78 13.67 236.78 0 162.64 0 127.44 13.67 13.21 237.25 13.21 237.25 236.78"/>
      <g>
        <path d="M282.14,168.15l9.05-18.79c9.23,6.61,20.22,12.35,37.79,12.35,9.58,0,21.29-4.35,21.29-13.22s-10.29-10.96-20.4-13.4c-21.47-4.87-43.64-12.01-43.64-35.5,0-21.75,20.76-32.54,42.76-32.54,17.39,0,30.51,4.52,42.05,12.01l-9.05,18.79c-9.23-5.92-21.29-9.05-33-9.05-6.03,0-17.39,2.26-17.39,10.79,0,7.31,8.34,9.92,19.69,12.53,20.4,4.7,44.89,12.18,44.89,36.37s-24.13,34.97-47.19,34.97c-27.5,0-40.45-10.27-46.84-15.31Z"/>
        <path d="M383.27,138.05c0-25.06,15.61-45.24,40.1-45.24,10.29,0,21.29,4,27.68,12.35v-10.61h23.24v87h-23.24v-10.44c-6.21,8.35-17.39,12.18-27.68,12.18-24.48,0-40.1-20.18-40.1-45.24ZM450.51,138.05c0-13.57-8.87-23.66-21.11-23.66s-22,10.09-22,23.66,9.23,23.66,22,23.66,21.11-9.74,21.11-23.66Z"/>
        <path d="M485.28,94.55h22.53v10.44c7.27-8.53,17.74-12.18,28.39-12.18,24.48,0,40.1,20.18,40.1,45.07s-15.97,45.41-40.45,45.41c-10.29,0-20.4-4-26.79-11.66v34.97h-23.77v-112.05ZM551.99,138.05c0-13.75-9.05-23.66-22-23.66-12.06,0-21.11,9.74-21.11,23.66s8.87,23.66,21.11,23.66c12.95,0,22-9.92,22-23.66Z"/>
        <path d="M584.63,94.55h22.53v10.44c7.27-8.53,17.74-12.18,28.39-12.18,24.48,0,40.1,20.18,40.1,45.07s-15.97,45.41-40.45,45.41c-10.29,0-20.4-4-26.79-11.66v34.97h-23.77v-112.05ZM651.34,138.05c0-13.75-9.05-23.66-22-23.66-12.06,0-21.11,9.74-21.11,23.66s8.87,23.66,21.11,23.66c12.95,0,22-9.92,22-23.66Z"/>
        <path d="M683.99,67.06h23.77v38.45c6.92-9.05,16.68-12.7,27.32-12.7,23.06,0,31.58,14.27,31.58,38.63v50.11h-23.77v-47.15c0-12.7-3.9-19.49-15.61-19.49-12.6,0-19.52,9.92-19.52,22.45v44.2h-23.77v-114.49Z"/>
        <path d="M774.29,70.19c0-7.66,6.39-13.92,14.02-13.92s14.19,6.26,14.19,13.92-6.39,13.75-14.19,13.75-14.02-6.26-14.02-13.75ZM776.6,94.55h23.77v87h-23.77v-87Z"/>
        <path d="M811.37,94.55h23.42v16.7c2.48-7.13,11.53-18.44,31.05-18.44v25.4c-20.58,0-30.69,9.22-30.69,29.93v33.41h-23.77v-87Z"/>
        <path d="M868.32,138.05c0-25.06,19.87-45.24,45.95-45.24,24.13,0,43.11,20.18,43.11,44.89,0,4.18-.53,8.35-.53,8.35h-64.4c2.84,12.01,12.95,17.75,24.66,17.75,8.52,0,17.39-2.44,23.95-6.79l8.87,16.7c-9.93,6.44-21.47,9.57-33,9.57-25.9,0-48.61-16.53-48.61-45.24ZM935.03,130.57c-1.77-10.96-10.65-18.27-21.47-18.27s-19.16,7.31-21.47,18.27h42.93Z"/>
      </g>
      <path class="cls-1" d="M250,0v250H0v-87.36l25.68,19.19v42.48h198.63V25.68H25.68v88.07l52.69,39.68c10.92,7.7,24.7,15.63,45.24,15.63,11.59,0,25.75-5.26,25.75-16s-12.44-13.24-24.67-16.18c-25.97-5.89-52.77-14.53-52.77-42.92,0-26.3,25.1-39.33,51.69-39.33,21.03,0,36.89,5.46,50.83,14.51l-10.94,22.71c-11.16-7.15-25.73-10.94-39.9-10.94-7.28,0-21.01,2.74-21.01,13.04,0,8.83,10.07,11.99,23.8,15.15,24.67,5.68,54.27,14.73,54.27,43.95s-29.17,42.28-57.06,42.28c-30.49,0-48.68-11.26-60.3-19.76L0,127.44V0h250Z"/>
    </g>
  </g>
</svg>