<svg width="97" height="21" viewBox="0 0 97 21" fill="none" xmlns="http://www.w3.org/2000/svg">
<path d="M11.1416 4.74648V2.64734H0V4.74648H4.52123V16.8569H6.62037V4.74648H11.1416Z" fill="white"/>
<path d="M54.9006 4.10062H56.9998V14.7578H62.9742V16.8569H54.9006V4.10062Z" fill="white"/>
<path fill-rule="evenodd" clip-rule="evenodd" d="M8.31583 12.0128C8.31583 9.2043 10.5937 6.92638 13.4022 6.92638C16.2107 6.92638 18.4886 9.2043 18.4886 12.0128C18.4886 14.8212 16.2121 17.0991 13.4022 17.0991C10.5923 17.0991 8.31583 14.8212 8.31583 12.0128ZM13.4022 9.02552C11.7529 9.02552 10.415 10.3634 10.415 12.0128C10.415 13.6621 11.7529 15 13.4022 15C15.0515 15 16.3894 13.6621 16.3894 12.0128C16.3894 10.3634 15.0515 9.02552 13.4022 9.02552Z" fill="white"/>
<path fill-rule="evenodd" clip-rule="evenodd" d="M21.9602 19.7634V16.1361C22.7359 16.7402 23.7047 17.0991 24.7918 17.0991C27.5512 17.0991 29.7167 14.7809 29.7167 12.0128C29.7167 9.24466 27.5512 6.92638 24.7918 6.92638C23.7062 6.92638 22.7359 7.28537 21.9602 7.88945V7.16859H19.8611V19.7634H21.9602ZM24.711 9.02552C23.19 9.02552 21.8045 10.3216 21.8045 12.0128C21.8045 13.7039 23.19 15 24.711 15C26.2321 15 27.6175 13.7039 27.6175 12.0128C27.6175 10.3216 26.2321 9.02552 24.711 9.02552Z" fill="white"/>
<path fill-rule="evenodd" clip-rule="evenodd" d="M38.5919 7.88513C37.8163 7.28393 36.8503 6.92638 35.7661 6.92638C33.0067 6.92638 30.8412 9.24466 30.8412 12.0128C30.8412 14.7809 33.0067 17.0991 35.7661 17.0991C36.8503 17.0991 37.8177 16.7416 38.5919 16.1404V16.8569H40.691V7.16859H38.5919V7.88513ZM38.7534 12.0128C38.7534 10.3216 37.3722 9.02552 35.8526 9.02552C34.3331 9.02552 32.9404 10.3216 32.9404 12.0128C32.9404 13.7039 34.3316 15 35.8526 15C37.3737 15 38.7534 13.7039 38.7534 12.0128Z" fill="white"/>
<path fill-rule="evenodd" clip-rule="evenodd" d="M68.2221 6.92638C69.3063 6.92638 70.2722 7.28393 71.0479 7.88513V7.16859H73.147V16.8569H71.0479V16.1404C70.2722 16.7416 69.3063 17.0991 68.2221 17.0991C65.4626 17.0991 63.2972 14.7809 63.2972 12.0128C63.2972 9.24466 65.4626 6.92638 68.2221 6.92638ZM68.3086 9.02552C69.8296 9.02552 71.2093 10.3216 71.2093 12.0128C71.2093 13.7039 69.8282 15 68.3086 15C66.789 15 65.3963 13.7039 65.3963 12.0128C65.3963 10.3216 66.7876 9.02552 68.3086 9.02552Z" fill="white"/>
<path d="M51.0253 8.78331V7.16859H42.4672V9.26773H47.8319L42.3058 15.2422V16.8569H50.8638V14.7578H45.4992L51.0253 8.78331Z" fill="white"/>
<path d="M89.6518 6.9062C88.6772 6.9062 87.6507 7.07056 86.901 7.68617C86.1167 8.32918 85.5948 9.34703 85.9192 10.5581C86.1801 11.5356 86.826 12.1252 87.5498 12.4784C88.2115 12.7999 88.9828 12.9441 89.5883 13.0566L89.6013 13.0595C90.276 13.1849 90.7734 13.2786 91.1584 13.4502C91.49 13.5972 91.6298 13.7529 91.7005 13.9836C91.7725 14.2215 91.637 14.5141 91.402 14.7001C91.0488 14.9798 90.4563 15.1874 89.8133 15.1874C88.7219 15.1874 87.8727 14.5761 87.4705 13.7284L85.5818 14.5949C86.3027 16.113 87.8583 17.079 89.8133 17.079C90.8527 17.079 92.0883 16.9146 92.8697 16.2976C93.6814 15.656 94.2336 14.6194 93.8602 13.3925C93.5689 12.4395 92.7313 11.896 92.0176 11.5788C91.3963 11.3034 90.6754 11.1694 90.0973 11.0627L89.9906 11.0425C89.3288 10.9185 88.8415 10.8161 88.4753 10.6374C88.1668 10.4874 87.9996 10.3577 87.9232 10.0722C87.8467 9.78531 87.9376 9.50273 88.236 9.25764C88.5676 8.9866 89.1039 8.79485 89.6532 8.79485C90.697 8.79485 91.4352 9.27638 91.8244 10.1515L93.7347 9.32973C93.0023 7.68184 91.4957 6.90188 89.6532 6.90188L89.6518 6.9062Z" fill="white"/>
<path fill-rule="evenodd" clip-rule="evenodd" d="M77.0223 7.88945V4.26209H74.9232V16.8569H77.0223V16.1361C77.798 16.7402 78.7668 17.0991 79.8539 17.0991C82.6133 17.0991 84.7788 14.7809 84.7788 12.0128C84.7788 9.24467 82.6133 6.92638 79.8539 6.92638C78.7682 6.92638 77.798 7.28537 77.0223 7.88945ZM76.8666 12.0128C76.8666 13.7039 78.2521 15 79.7731 15C81.2941 15 82.6796 13.7039 82.6796 12.0128C82.6796 10.3216 81.2941 9.02553 79.7731 9.02553C78.2521 9.02553 76.8666 10.3216 76.8666 12.0128Z" fill="white"/>
<path d="M93.0859 4.5389C93.0859 3.44464 93.8832 2.64737 94.9861 2.64737C96.089 2.64737 96.8777 3.45329 96.8777 4.5389C96.8777 5.62451 96.0804 6.43908 94.9861 6.43908C93.8919 6.43908 93.0859 5.63316 93.0859 4.5389ZM94.9861 5.98206C95.8094 5.98206 96.4033 5.36212 96.4033 4.54034C96.4033 3.71856 95.8094 3.09862 94.9861 3.09862C94.1629 3.09862 93.5603 3.71856 93.5603 4.54034C93.5603 5.36212 94.1543 5.98206 94.9861 5.98206ZM95.1058 3.50375C95.2759 3.50375 95.8612 3.57151 95.8612 4.16549C95.8612 4.54755 95.632 4.70902 95.4201 4.77678L95.9204 5.53224H95.4028L94.9357 4.82003H94.7569V5.53224H94.2725V3.50375H95.1058ZM95.0467 4.41203C95.1822 4.41203 95.335 4.36157 95.335 4.15684C95.335 3.97086 95.1822 3.91031 95.0553 3.91031H94.7583V4.41059H95.0467V4.41203Z" fill="white"/>
</svg>
